<mxfile host="app.diagrams.net" modified="2023-09-19T14:31:58.949Z" agent="Mozilla/5.0 (Windows NT 10.0; Win64; x64) AppleWebKit/537.36 (KHTML, like Gecko) Chrome/117.0.0.0 Safari/537.36" etag="JGbwfu3534juA2oqojFI" version="21.7.5" type="github">
  <diagram id="C5RBs43oDa-KdzZeNtuy" name="Page-1">
    <mxGraphModel dx="1050" dy="534" grid="1" gridSize="10" guides="1" tooltips="1" connect="1" arrows="1" fold="1" page="1" pageScale="1" pageWidth="827" pageHeight="1169" math="0" shadow="0">
      <root>
        <mxCell id="WIyWlLk6GJQsqaUBKTNV-0" />
        <mxCell id="WIyWlLk6GJQsqaUBKTNV-1" parent="WIyWlLk6GJQsqaUBKTNV-0" />
        <mxCell id="cyySuN4TWTc_bcg0RgEU-4" value="" style="edgeStyle=orthogonalEdgeStyle;rounded=0;orthogonalLoop=1;jettySize=auto;html=1;" edge="1" parent="WIyWlLk6GJQsqaUBKTNV-1" source="cyySuN4TWTc_bcg0RgEU-0" target="cyySuN4TWTc_bcg0RgEU-3">
          <mxGeometry relative="1" as="geometry" />
        </mxCell>
        <mxCell id="cyySuN4TWTc_bcg0RgEU-0" value="&lt;h2 style=&quot;font-size: 21px;&quot;&gt;start&lt;/h2&gt;" style="ellipse;whiteSpace=wrap;html=1;" vertex="1" parent="WIyWlLk6GJQsqaUBKTNV-1">
          <mxGeometry x="260" y="40" width="120" height="80" as="geometry" />
        </mxCell>
        <mxCell id="cyySuN4TWTc_bcg0RgEU-7" value="" style="edgeStyle=orthogonalEdgeStyle;rounded=0;orthogonalLoop=1;jettySize=auto;html=1;" edge="1" parent="WIyWlLk6GJQsqaUBKTNV-1" source="cyySuN4TWTc_bcg0RgEU-1" target="cyySuN4TWTc_bcg0RgEU-6">
          <mxGeometry relative="1" as="geometry" />
        </mxCell>
        <mxCell id="cyySuN4TWTc_bcg0RgEU-1" value="&lt;h3 style=&quot;font-size: 17px;&quot;&gt;A = (r1 * r2 ) / 2&lt;/h3&gt;" style="rounded=0;whiteSpace=wrap;html=1;" vertex="1" parent="WIyWlLk6GJQsqaUBKTNV-1">
          <mxGeometry x="250" y="240" width="140" height="60" as="geometry" />
        </mxCell>
        <mxCell id="cyySuN4TWTc_bcg0RgEU-5" value="" style="edgeStyle=orthogonalEdgeStyle;rounded=0;orthogonalLoop=1;jettySize=auto;html=1;" edge="1" parent="WIyWlLk6GJQsqaUBKTNV-1" source="cyySuN4TWTc_bcg0RgEU-3" target="cyySuN4TWTc_bcg0RgEU-1">
          <mxGeometry relative="1" as="geometry" />
        </mxCell>
        <mxCell id="cyySuN4TWTc_bcg0RgEU-3" value="Read&amp;nbsp;&lt;br&gt;r1 &amp;amp; r2" style="shape=parallelogram;perimeter=parallelogramPerimeter;whiteSpace=wrap;html=1;fixedSize=1;" vertex="1" parent="WIyWlLk6GJQsqaUBKTNV-1">
          <mxGeometry x="260" y="150" width="120" height="60" as="geometry" />
        </mxCell>
        <mxCell id="cyySuN4TWTc_bcg0RgEU-9" value="" style="edgeStyle=orthogonalEdgeStyle;rounded=0;orthogonalLoop=1;jettySize=auto;html=1;" edge="1" parent="WIyWlLk6GJQsqaUBKTNV-1" source="cyySuN4TWTc_bcg0RgEU-6" target="cyySuN4TWTc_bcg0RgEU-8">
          <mxGeometry relative="1" as="geometry" />
        </mxCell>
        <mxCell id="cyySuN4TWTc_bcg0RgEU-6" value="output&amp;nbsp;&lt;br&gt;A" style="shape=parallelogram;perimeter=parallelogramPerimeter;whiteSpace=wrap;html=1;fixedSize=1;rounded=0;" vertex="1" parent="WIyWlLk6GJQsqaUBKTNV-1">
          <mxGeometry x="260" y="350" width="120" height="60" as="geometry" />
        </mxCell>
        <mxCell id="cyySuN4TWTc_bcg0RgEU-8" value="End" style="ellipse;whiteSpace=wrap;html=1;" vertex="1" parent="WIyWlLk6GJQsqaUBKTNV-1">
          <mxGeometry x="260" y="460" width="120" height="80" as="geometry" />
        </mxCell>
      </root>
    </mxGraphModel>
  </diagram>
</mxfile>
